<svg width="1920" height="1080" viewBox="0 0 1920 1080" xmlns="http://www.w3.org/2000/svg"><rect width="1920" height="1080" fill="#696363"/><path d="M 0,1080 C 0,1080 0,180 0,180 C 125.0974358974359,178.62820512820514 250.1948717948718,177.25641025641025 363,195 C 475.8051282051282,212.74358974358975 576.3179487179488,249.6025641025641 674,238 C 771.6820512820512,226.3974358974359 866.5333333333333,166.33333333333334 960,138 C 1053.4666666666667,109.66666666666666 1145.548717948718,113.06410256410255 1250,113 C 1354.451282051282,112.93589743589745 1471.271794871795,109.41025641025641 1585,120 C 1698.728205128205,130.5897435897436 1809.3641025641025,155.2948717948718 1920,180 C 1920,180 1920,1080 1920,1080 Z" fill="#a18d87" opacity="0.09999999999999999"/><path d="M 0,1080 C 0,1080 0,360 0,360 C 93.02051282051283,375.66666666666663 186.04102564102567,391.3333333333333 309,376 C 431.95897435897433,360.6666666666667 584.8564102564102,314.33333333333337 683,321 C 781.1435897435898,327.66666666666663 824.5333333333334,387.3333333333333 911,414 C 997.4666666666666,440.6666666666667 1127.0102564102563,434.33333333333337 1239,415 C 1350.9897435897437,395.66666666666663 1445.4256410256412,363.3333333333333 1556,352 C 1666.5743589743588,340.6666666666667 1793.2871794871794,350.33333333333337 1920,360 C 1920,360 1920,1080 1920,1080 Z" fill="#a18d87" opacity="0.19999999999999998"/><path d="M 0,1080 C 0,1080 0,540 0,540 C 128.79999999999998,555.0692307692308 257.59999999999997,570.1384615384616 366,563 C 474.40000000000003,555.8615384615384 562.4,526.5153846153846 654,539 C 745.6,551.4846153846154 840.8,605.8 930,602 C 1019.2,598.2 1102.4,536.2846153846153 1230,515 C 1357.6,493.71538461538466 1529.6,513.0615384615385 1652,524 C 1774.4,534.9384615384615 1847.2,537.4692307692308 1920,540 C 1920,540 1920,1080 1920,1080 Z" fill="#a18d87" opacity="0.3"/><path d="M 0,1080 C 0,1080 0,720 0,720 C 98.46923076923076,717.6205128205129 196.93846153846152,715.2410256410257 292,700 C 387.0615384615385,684.7589743589743 478.71538461538466,656.6564102564103 593,658 C 707.2846153846153,659.3435897435897 844.1999999999998,690.1333333333334 972,720 C 1099.8000000000002,749.8666666666666 1218.4846153846154,778.8102564102564 1330,769 C 1441.5153846153846,759.1897435897436 1545.8615384615384,710.625641025641 1643,696 C 1740.1384615384616,681.374358974359 1830.0692307692307,700.6871794871795 1920,720 C 1920,720 1920,1080 1920,1080 Z" fill="#a18d87" opacity="0.39999999999999997"/><path d="M 0,1080 C 0,1080 0,900 0,900 C 133.87435897435898,936.7564102564103 267.74871794871797,973.5128205128206 364,964 C 460.25128205128203,954.4871794871794 518.8794871794871,898.7051282051281 624,860 C 729.1205128205129,821.2948717948719 880.7333333333333,799.6666666666667 998,835 C 1115.2666666666667,870.3333333333333 1198.1871794871795,962.6282051282052 1283,960 C 1367.8128205128205,957.3717948717948 1454.5179487179487,859.8205128205128 1561,834 C 1667.4820512820513,808.1794871794872 1793.7410256410258,854.0897435897436 1920,900 C 1920,900 1920,1080 1920,1080 Z" fill="#a18d87" opacity="0.49999999999999994"/></svg>