<svg width="1920" height="1080" viewBox="0 0 1920 1080" xmlns="http://www.w3.org/2000/svg"><rect width="1920" height="1080" fill="#e1c1c1"/><path d="M 0,1080 C 0,1080 0,180 0,180 C 128.59487179487178,145.1102564102564 257.18974358974356,110.22051282051282 370,128 C 482.81025641025644,145.77948717948718 579.8358974358976,216.22820512820513 685,212 C 790.1641025641024,207.77179487179487 903.4666666666665,128.86666666666667 992,130 C 1080.5333333333335,131.13333333333333 1144.2974358974361,212.3051282051282 1256,213 C 1367.7025641025639,213.6948717948718 1527.3435897435895,133.91282051282053 1646,115 C 1764.6564102564105,96.08717948717948 1842.3282051282054,138.04358974358973 1920,180 C 1920,180 1920,1080 1920,1080 Z" fill="#80706b" opacity="0.09999999999999999"/><path d="M 0,1080 C 0,1080 0,360 0,360 C 99.14358974358973,377.8179487179487 198.28717948717946,395.6358974358974 303,400 C 407.71282051282054,404.3641025641026 517.9948717948719,395.27435897435896 644,402 C 770.0051282051281,408.72564102564104 911.7333333333333,431.26666666666665 1005,418 C 1098.2666666666667,404.73333333333335 1143.071794871795,355.6589743589744 1252,354 C 1360.928205128205,352.3410256410256 1533.9794871794873,398.0974358974359 1656,407 C 1778.0205128205127,415.9025641025641 1849.0102564102563,387.9512820512821 1920,360 C 1920,360 1920,1080 1920,1080 Z" fill="#80706b" opacity="0.19999999999999998"/><path d="M 0,1080 C 0,1080 0,540 0,540 C 117.23589743589744,537.2717948717949 234.47179487179488,534.5435897435898 327,550 C 419.5282051282051,565.4564102564102 487.348717948718,599.0974358974358 597,592 C 706.651282051282,584.9025641025642 858.1333333333334,537.0666666666666 968,516 C 1077.8666666666666,494.93333333333334 1146.1179487179488,500.6358974358975 1239,524 C 1331.8820512820512,547.3641025641025 1449.3948717948717,588.3897435897436 1567,594 C 1684.6051282051283,599.6102564102564 1802.3025641025642,569.8051282051282 1920,540 C 1920,540 1920,1080 1920,1080 Z" fill="#80706b" opacity="0.3"/><path d="M 0,1080 C 0,1080 0,720 0,720 C 74.72820512820513,700.9820512820513 149.45641025641027,681.9641025641025 275,702 C 400.54358974358973,722.0358974358975 576.902564102564,781.1256410256411 692,768 C 807.097435897436,754.8743589743589 860.9333333333332,669.5333333333333 964,666 C 1067.0666666666668,662.4666666666667 1219.3641025641025,740.7410256410257 1321,769 C 1422.6358974358975,797.2589743589743 1473.6102564102564,775.5025641025642 1565,759 C 1656.3897435897436,742.4974358974358 1788.1948717948717,731.248717948718 1920,720 C 1920,720 1920,1080 1920,1080 Z" fill="#80706b" opacity="0.39999999999999997"/><path d="M 0,1080 C 0,1080 0,900 0,900 C 99.29743589743589,868.1871794871795 198.59487179487178,836.374358974359 302,846 C 405.4051282051282,855.625641025641 512.9179487179488,906.6897435897434 615,920 C 717.0820512820512,933.3102564102566 813.7333333333333,908.8666666666667 925,886 C 1036.2666666666667,863.1333333333333 1162.1487179487178,841.8435897435897 1274,855 C 1385.8512820512822,868.1564102564103 1483.6717948717949,915.7589743589745 1589,929 C 1694.3282051282051,942.2410256410255 1807.1641025641024,921.1205128205128 1920,900 C 1920,900 1920,1080 1920,1080 Z" fill="#80706b" opacity="0.49999999999999994"/></svg>