<svg width="1920" height="1080" viewBox="0 0 1920 1080" xmlns="http://www.w3.org/2000/svg"><rect width="1920" height="1080" fill="#b18686"/><path d="M 0,1080 C 0,1080 0,180 0,180 C 125.33333333333334,196.2923076923077 250.66666666666669,212.58461538461538 347,213 C 443.3333333333333,213.41538461538462 510.6666666666665,197.95384615384611 615,176 C 719.3333333333335,154.04615384615389 860.666666666667,125.60000000000002 981,116 C 1101.333333333333,106.39999999999998 1200.6666666666665,115.64615384615384 1303,118 C 1405.3333333333335,120.35384615384616 1510.6666666666667,115.81538461538463 1614,125 C 1717.3333333333333,134.18461538461537 1818.6666666666665,157.09230769230768 1920,180 C 1920,180 1920,1080 1920,1080 Z" fill="#46413f" opacity="0.09999999999999999"/><path d="M 0,1080 C 0,1080 0,360 0,360 C 145.8025641025641,362.53076923076924 291.6051282051282,365.0615384615385 375,375 C 458.3948717948718,384.9384615384615 479.3820512820513,402.2846153846154 588,401 C 696.6179487179487,399.7153846153846 892.866666666667,379.8 1017,351 C 1141.133333333333,322.2 1193.151282051282,284.5153846153846 1290,302 C 1386.848717948718,319.4846153846154 1528.5282051282052,392.1384615384615 1641,411 C 1753.4717948717948,429.8615384615385 1836.7358974358974,394.9307692307692 1920,360 C 1920,360 1920,1080 1920,1080 Z" fill="#46413f" opacity="0.19999999999999998"/><path d="M 0,1080 C 0,1080 0,540 0,540 C 89.80512820512817,503.6025641025641 179.61025641025634,467.20512820512823 292,485 C 404.38974358974366,502.79487179487177 539.3641025641026,574.7820512820513 637,577 C 734.6358974358974,579.2179487179487 794.9333333333334,511.66666666666663 917,503 C 1039.0666666666666,494.33333333333337 1222.9025641025642,544.5512820512821 1337,562 C 1451.0974358974358,579.4487179487179 1495.4564102564102,564.1282051282051 1581,555 C 1666.5435897435898,545.8717948717949 1793.271794871795,542.9358974358975 1920,540 C 1920,540 1920,1080 1920,1080 Z" fill="#46413f" opacity="0.3"/><path d="M 0,1080 C 0,1080 0,720 0,720 C 127.23846153846151,703.3897435897436 254.47692307692301,686.7794871794871 366,700 C 477.523076923077,713.2205128205129 573.3307692307693,756.2717948717949 663,763 C 752.6692307692307,769.7282051282051 836.2,740.1333333333334 933,732 C 1029.8,723.8666666666666 1139.8692307692306,737.1948717948719 1247,753 C 1354.1307692307694,768.8051282051281 1458.323076923077,787.0871794871794 1570,782 C 1681.676923076923,776.9128205128206 1800.8384615384616,748.4564102564103 1920,720 C 1920,720 1920,1080 1920,1080 Z" fill="#46413f" opacity="0.39999999999999997"/><path d="M 0,1080 C 0,1080 0,900 0,900 C 118.82564102564103,901.5 237.65128205128207,903 326,903 C 414.34871794871793,903 472.2205128205129,901.5000000000001 590,896 C 707.7794871794871,890.4999999999999 885.4666666666665,881 1003,864 C 1120.5333333333335,847 1177.9128205128206,822.5 1266,839 C 1354.0871794871794,855.5 1472.8820512820512,913 1587,930 C 1701.1179487179488,947 1810.5589743589744,923.5 1920,900 C 1920,900 1920,1080 1920,1080 Z" fill="#46413f" opacity="0.49999999999999994"/></svg>